{"title":"Furry Vengeance 2010 DVDRip XviD By SKITTLES","uid":5750695,"size":732369094,"categoryP":"video","categoryS":"movies","magnet":"?xt=urn:btih:89413d595a5c708bdd12a165c0f87a277d795b22&amp;dn=Furry+Vengeance+2010+DVDRip+XviD+By+SKITTLES&amp;tr=udp%3A%2F%2Ftracker.openbittorrent.com%3A80&amp;tr=udp%3A%2F%2Fopen.demonii.com%3A1337&amp;tr=udp%3A%2F%2Ftracker.coppersurfer.tk%3A6969&amp;tr=udp%3A%2F%2Fexodus.desync.com%3A6969","seeders":0,"leechers":0,"uploader":"SkittlesRG","files":-1,"time":1281380389,"description":"[img]http://leetleech.org/images/26318307611164423877.jpg[/img]\nUser Rating:\n2.0/10   2,316 votes \n\nGenre:\nComedy | Family\n\nPlot:\nIn the Oregon wilderness, a real estate developer's new housing subdivision faces a unique group of protesters, local woodland creatures who don't want their homes disturbed.\n\n[img]http://leetleech.org/images/40952934871592618258.jpg[/img]\nVideo\nID                               : 0\nFormat                           : MPEG-4 Visual\nFormat profile                   : Advanced Simple@L5\nFormat settings, BVOP            : Yes\nFormat settings, QPel            : No\nFormat settings, GMC             : No warppoints\nFormat settings, Matrix          : Default (H.263)\nMuxing mode                      : Packed bitstream\nCodec ID                         : XVID\nCodec ID/Hint                    : XviD\nDuration                         : 1h 31mn\nBit rate                         : 932 Kbps\nWidth                            : 640 pixels\nHeight                           : 352 pixels\nDisplay aspect ratio             : 16:9\nFrame rate                       : 23.976 fps\nResolution                       : 8 bits\nColorimetry                      : 4:2:0\nScan type                        : Progressive\nBits/(Pixel*Frame)               : 0.173\nStream size                      : 609 MiB (87%)\nWriting library                  : XviD 1.2.1 (UTC 2008-12-04)\n\nAudio\nID                               : 1\nFormat                           : MPEG Audio\nFormat version                   : Version 1\nFormat profile                   : Layer 3\nMode                             : Joint stereo\nFormat_Settings_ModeExtension    : MS Stereo\nCodec ID                         : 55\nCodec ID/Hint                    : MP3\nDuration                         : 1h 31mn\nBit rate mode                    : Constant\nBit rate                         : 128 Kbps\nChannel(s)                       : 2 channels\nSampling rate                    : 48.0 KHz\nStream size                      : 83.6 MiB (12%)\nAlignment                        : Aligned on interleaves\nInterleave, duration             : 42 ms (1.00 video frame)\nInterleave, preload duration     : 504 ms\n\nURL: http://www.imdb.com/title/tt0492389/\nTRAILER:","torrent":{"xt":"urn:btih:89413d595a5c708bdd12a165c0f87a277d795b22","amp;dn":"Furry+Vengeance+2010+DVDRip+XviD+By+SKITTLES","amp;tr":["udp%3A%2F%2Ftracker.openbittorrent.com%3A80","udp%3A%2F%2Fopen.demonii.com%3A1337","udp%3A%2F%2Ftracker.coppersurfer.tk%3A6969","udp%3A%2F%2Fexodus.desync.com%3A6969"],"infoHash":"89413d595a5c708bdd12a165c0f87a277d795b22","infoHashBuffer":{"type":"Buffer","data":[137,65,61,89,90,92,112,139,221,18,161,101,192,248,122,39,125,121,91,34]},"announce":[],"urlList":[]}}